<svg width="200" height="200" viewBox="0 0 200 200" fill="none" xmlns="http://www.w3.org/2000/svg">
<rect width="200" height="200" fill="#F5F5F5"/>
<path d="M0 25C0 11.1929 11.1929 0 25 0H175C188.807 0 200 11.1929 200 25V175C200 188.807 188.807 200 175 200H25C11.1929 200 0 188.807 0 175V25Z" fill="url(#paint0_linear_0_1)" fill-opacity="0.2"/>
<path d="M0 25C0 11.1929 11.1929 0 25 0H175C188.807 0 200 11.1929 200 25V175C200 188.807 188.807 200 175 200H25C11.1929 200 0 188.807 0 175V25Z" fill="url(#paint1_linear_0_1)" fill-opacity="0.2"/>
<path d="M41.6 51.872V75.296H50.688V60.32H141.056V75.296H150.528V51.872H41.6ZM54.272 73.248V81.056H137.856V73.248H54.272ZM73.856 64.8V90.272H83.712V64.8H73.856ZM108.288 64.8V90.272H118.016V64.8H108.288ZM98.816 123.68V144.416C98.816 154.016 102.4 156.704 115.456 156.704C118.144 156.704 136.064 156.704 139.136 156.704C150.784 156.704 153.728 152.224 154.88 132.768C152.32 132.128 148.352 130.72 146.304 129.056C145.664 145.952 144.64 148.256 138.368 148.256C134.272 148.256 119.296 148.256 116.224 148.256C109.696 148.256 108.416 147.616 108.416 144.288V123.68H98.816ZM87.168 42.144C89.856 47.008 92.928 53.664 94.336 57.632L104.704 54.432C103.296 50.336 99.968 43.936 97.28 39.328L87.168 42.144ZM88.32 107.68V117.664C88.32 128.032 84.864 142.368 37.376 152.224C39.68 154.144 42.496 157.984 43.648 160.16C92.928 148.64 98.56 131.488 98.56 117.92V107.68H88.32ZM57.6 94.752V135.2H67.2V103.072H124.032V134.304H133.888V94.752H57.6Z" fill="#A75CE1"/>
<defs>
<linearGradient id="paint0_linear_0_1" x1="100" y1="0" x2="100" y2="200" gradientUnits="userSpaceOnUse">
<stop stop-color="#9DF15A"/>
<stop offset="0.307292" stop-color="#169E30" stop-opacity="0.597594"/>
<stop offset="0.65625" stop-color="#3D86A9" stop-opacity="0.140625"/>
<stop offset="0.677083" stop-color="#5E5887" stop-opacity="0.132102"/>
<stop offset="1" stop-color="#2D74B6" stop-opacity="0"/>
</linearGradient>
<linearGradient id="paint1_linear_0_1" x1="11" y1="33" x2="182" y2="200" gradientUnits="userSpaceOnUse">
<stop offset="0.005" stop-color="#DC8A8A" stop-opacity="0.6"/>
<stop offset="1" stop-color="#DC7C8D"/>
</linearGradient>
</defs>
</svg>
